<svg width="441" height="555" viewBox="0 0 441 555" fill="none" xmlns="http://www.w3.org/2000/svg">
<rect y="115.411" width="75" height="455" transform="rotate(-15 0 115.411)" fill="#FF0000"/>
<path d="M160.941 122.708C153.794 96.0344 169.623 68.6176 196.296 61.4705L220.444 55L338.207 494.496L265.763 513.908L160.941 122.708Z" fill="#FF0000"/>
<rect x="212.23" y="234.205" width="75" height="90.1072" transform="rotate(75.2805 212.23 234.205)" fill="#FF0000"/>
<rect x="212.23" y="222.205" width="75" height="90.1072" transform="rotate(75.2805 212.23 222.205)" fill="#950101"/>
<rect x="9" y="100.411" width="75" height="455" transform="rotate(-15 9 100.411)" fill="#950101"/>
<path d="M379.688 12.8663L386.81 39.9744C393.826 66.6823 377.864 94.0215 351.156 101.038L236.177 131.245L216.351 55.7779L379.688 12.8663Z" fill="#FF0000"/>
<path d="M383.688 0.866272L390.81 27.9744C397.826 54.6823 381.864 82.0215 355.156 89.0382L240.177 119.245L220.351 43.7779L383.688 0.866272Z" fill="#950101"/>
<path d="M362.978 191.705C389.686 184.688 417.025 200.651 424.042 227.359L431.164 254.467L267.827 297.379L248 221.912L362.978 191.705Z" fill="#FF0000"/>
<path d="M371.978 175.705C398.686 168.688 426.025 184.651 433.042 211.359L440.164 238.467L276.827 281.379L257 205.912L371.978 175.705Z" fill="#950101"/>
<path d="M171.941 108.708C164.794 82.0344 180.623 54.6176 207.296 47.4705L231.444 41L349.207 480.496L276.763 499.908L171.941 108.708Z" fill="#950101"/>
</svg>
